# xmcd
#
# Track frame offsets: 
#        150
#        19757
#        33555
#        49225
#        61612
#        75270
#        89222
#        103022
#        120465
#        131700
#        145770
#        155959
#        171122
#        185870
#
# Disc length: 2669 seconds
#
# Revision: 0
# Processed by: cddbd v1.5.2PL0 Copyright (c) Steve Scherf et al.
# Submitted via: ExactAudioCopy v0.99pb3
#
DISCID=c20a6b0e
DTITLE=John Lee Hooker - Plays the Blues
DYEAR=2004
DGENRE=Blues
TTITLE0=The Journey
TTITLE1=I dont want your Money
TTITLE2=Hey Baby, You Look Good to Me
TTITLE3=Mad Man Blues
TTITLE4=Bluebird
TTITLE5=Worried Life Blues
TTITLE6=Apologise
TTITLE7=Lonely Boy Boogie
TTITLE8=Please Dont Go
TTITLE9=Dreamin' Blues
TTITLE10=Hey Boogie
TTITLE11=Just Me and My Telephone
TTITLE12=You Have Two Hearts
TTITLE13=Blues for Big Town
EXTD=
EXTT0=
EXTT1=
EXTT2=
EXTT3=
EXTT4=
EXTT5=
EXTT6=
EXTT7=
EXTT8=
EXTT9=
EXTT10=
EXTT11=
EXTT12=
EXTT13=
PLAYORDER=
